<?xml version="1.0" standalone="no"?>
<!DOCTYPE svg PUBLIC "-//W3C//DTD SVG 20010904//EN"
 "http://www.w3.org/TR/2001/REC-SVG-20010904/DTD/svg10.dtd">
<svg version="1.0" xmlns="http://www.w3.org/2000/svg"
 width="1500.000000pt" height="1500.000000pt" viewBox="0 0 1500.000000 1500.000000"
 preserveAspectRatio="xMidYMid meet">
<metadata>
Created by potrace 1.11, written by Peter Selinger 2001-2013
</metadata>
<g transform="translate(0.000000,1500.000000) scale(0.100000,-0.100000)"
fill="#000000" stroke="none">
<path d="M7607 11784 c-1 -1 -54 -5 -117 -9 -63 -4 -117 -8 -120 -10 -3 -2
-40 -6 -83 -10 -43 -3 -88 -8 -100 -11 -44 -9 -73 -13 -112 -18 -22 -3 -74
-13 -115 -21 -41 -9 -115 -25 -165 -36 -320 -69 -755 -218 -1095 -376 -234
-109 -489 -248 -627 -340 l-52 -35 -88 35 c-48 20 -144 59 -213 87 -69 28
-134 55 -145 60 -11 5 -263 109 -560 231 -297 121 -553 227 -569 235 -16 8
-33 14 -38 14 -4 0 -27 8 -51 19 -144 62 -311 130 -315 126 -1 -1 227 -462
508 -1024 l510 -1021 -66 -158 c-36 -86 -72 -170 -79 -187 -133 -303 -383
-1006 -485 -1365 -12 -41 -28 -97 -36 -125 -8 -27 -16 -57 -18 -65 -2 -8 -25
-95 -50 -193 -25 -98 -48 -192 -52 -210 -3 -18 -20 -104 -39 -192 -39 -181
-44 -206 -50 -255 -3 -19 -14 -84 -24 -145 -11 -60 -23 -134 -26 -164 -4 -30
-8 -61 -10 -70 -7 -36 -18 -142 -30 -281 -4 -41 -9 -91 -11 -110 -21 -209 -21
-813 0 -950 3 -14 7 -63 11 -110 4 -47 9 -94 10 -105 5 -28 14 -93 20 -135 3
-19 7 -46 10 -60 3 -14 8 -41 11 -60 11 -72 55 -269 85 -380 92 -348 255 -734
433 -1030 85 -140 265 -399 306 -440 3 -3 32 -36 65 -75 233 -272 455 -471
765 -687 205 -142 564 -343 732 -409 29 -11 67 -27 83 -34 156 -73 495 -183
702 -229 40 -9 117 -37 171 -62 l99 -46 -4 -202 c-2 -110 -5 -241 -6 -291 l-3
-89 -34 1 c-19 0 -60 3 -90 7 -30 3 -84 8 -120 12 -36 3 -72 7 -80 9 -8 2 -42
7 -75 10 -33 4 -85 10 -115 15 -30 5 -73 12 -95 15 -77 11 -219 36 -225 40 -4
2 -20 7 -37 10 -47 8 -307 93 -402 131 -119 48 -242 101 -501 217 -475 212
-527 235 -595 261 -38 16 -83 34 -100 41 -16 7 -79 32 -140 55 -141 54 -312
143 -605 315 -63 37 -135 79 -160 93 -25 14 -79 44 -120 67 -176 99 -459 231
-600 279 -172 58 -345 86 -493 78 -28 -2 -28 -2 -23 -54 3 -29 8 -82 11 -118
9 -117 17 -205 19 -206 0 -1 42 -4 92 -8 90 -6 248 -44 355 -86 167 -65 358
-164 740 -383 395 -227 520 -289 774 -387 33 -12 74 -29 90 -36 17 -7 58 -24
92 -38 35 -15 87 -37 115 -50 127 -59 619 -276 678 -300 73 -30 86 -36 150
-64 221 -97 542 -193 742 -223 40 -6 100 -14 133 -19 107 -16 129 -19 210 -29
122 -15 174 -21 240 -26 33 -3 85 -7 115 -10 75 -7 171 -13 325 -21 72 -3 164
-8 205 -10 41 -2 311 -6 600 -8 554 -6 1304 -16 1455 -21 222 -7 438 -17 453
-20 9 -1 82 -6 162 -10 228 -11 312 -16 480 -30 77 -6 172 -14 255 -20 151
-12 202 -16 345 -31 36 -4 460 -7 943 -8 l877 -1 10 35 c16 55 13 67 -17 73
-16 2 -91 19 -168 36 -178 41 -395 84 -555 110 -69 12 -136 23 -150 25 -35 7
-297 45 -344 51 -21 2 -55 7 -75 9 -20 3 -61 8 -91 11 -30 4 -66 8 -80 10 -14
2 -54 6 -90 10 -36 4 -76 8 -90 10 -14 2 -61 6 -104 10 -43 4 -86 8 -95 10 -9
1 -56 6 -106 9 -49 4 -108 9 -130 11 -22 2 -80 7 -130 10 -49 4 -108 8 -130
10 -22 3 -84 7 -138 10 -53 3 -125 8 -160 10 -34 2 -109 7 -167 10 -58 4 -130
8 -160 10 -53 4 -312 15 -432 19 -32 1 -60 5 -64 9 -4 4 -6 75 -5 159 3 141 8
407 10 470 1 22 12 32 68 63 37 20 94 43 128 50 641 137 1269 409 1719 743
191 142 411 348 564 527 80 94 218 284 288 398 58 93 212 387 232 442 6 17 28
73 50 126 118 283 228 712 267 1038 4 30 8 62 10 71 2 9 6 50 9 92 4 41 8 84
10 94 10 54 20 307 20 524 -1 280 -8 452 -29 665 -3 28 -7 75 -10 105 -5 56
-13 135 -20 180 -2 14 -6 50 -10 80 -4 30 -9 69 -11 85 -3 17 -7 41 -9 55 -18
127 -39 250 -65 380 -17 85 -33 169 -36 185 -3 17 -7 35 -8 40 -2 6 -6 28 -10
50 -13 68 -134 553 -172 690 -111 399 -322 1021 -443 1310 -5 11 -19 45 -31
75 -12 30 -29 70 -37 88 -13 26 -13 38 -4 58 10 22 258 477 319 586 12 21 38
68 58 105 21 37 54 99 76 136 21 38 38 70 38 72 0 2 17 34 38 72 44 77 86 154
145 263 22 41 43 80 47 85 4 6 38 66 75 135 98 182 125 230 152 277 l25 42
-54 -15 c-29 -8 -114 -35 -188 -58 -74 -24 -157 -50 -185 -59 -27 -8 -122 -38
-210 -65 -183 -58 -400 -125 -495 -154 -36 -11 -76 -23 -90 -28 -26 -9 -228
-72 -495 -155 -82 -25 -183 -57 -222 -70 l-73 -24 -97 83 c-355 300 -798 571
-1173 716 -47 18 -94 36 -105 41 -182 71 -472 150 -675 184 -19 3 -48 8 -65
12 -16 3 -41 7 -55 8 -14 1 -50 6 -80 9 -202 25 -278 29 -508 31 -122 0 -224
0 -225 -1z m485 -388 c395 -31 796 -127 1133 -272 343 -146 661 -340 960 -583
44 -36 85 -70 91 -76 6 -5 40 -36 75 -67 35 -31 82 -73 103 -93 22 -20 45 -34
51 -31 10 4 350 110 515 161 41 13 156 49 255 80 99 31 187 58 195 60 8 2 74
23 145 45 72 23 143 45 158 50 25 8 28 7 22 -8 -5 -15 -97 -183 -340 -622 -29
-52 -68 -122 -86 -155 -17 -33 -44 -81 -58 -107 -14 -27 -28 -48 -31 -48 -3 0
-34 28 -70 61 -235 217 -541 388 -845 469 -105 28 -136 33 -250 45 -33 3 -78
8 -100 10 -48 5 -258 6 -300 1 -16 -2 -59 -7 -95 -11 -248 -27 -559 -136 -780
-272 -274 -169 -526 -422 -701 -704 -145 -233 -272 -572 -305 -815 -3 -27 -8
-57 -10 -67 -9 -51 -18 -198 -18 -317 1 -164 12 -283 40 -430 109 -554 400
-1024 841 -1357 230 -173 538 -310 808 -357 17 -3 41 -8 55 -11 99 -20 451
-28 555 -11 98 15 251 48 315 67 247 75 501 210 695 371 52 43 97 78 100 78 6
0 -2 -341 -9 -375 -2 -11 -7 -47 -10 -80 -22 -202 -87 -522 -146 -720 -49
-167 -69 -230 -112 -355 -45 -130 -128 -345 -163 -425 -7 -16 -39 -88 -70
-160 -47 -105 -159 -337 -280 -575 -23 -44 -70 -129 -215 -385 -79 -140 -116
-201 -254 -420 -63 -100 -251 -383 -319 -480 -217 -309 -523 -717 -556 -742
-31 -23 -264 -135 -359 -173 -424 -167 -794 -211 -1182 -141 -177 33 -414 100
-600 172 -72 27 -82 36 -215 172 -132 135 -166 171 -275 292 -126 140 -355
414 -389 465 -9 14 -58 81 -110 150 -117 157 -311 449 -430 647 -50 84 -91
155 -91 157 0 2 -19 37 -43 78 -47 79 -241 465 -296 588 -136 306 -269 658
-363 960 -51 168 -110 378 -123 439 -2 9 -13 59 -25 111 -41 182 -75 359 -94
493 -4 20 -8 52 -11 70 -16 103 -21 157 -14 157 4 0 9 -4 11 -9 5 -13 152
-117 233 -164 214 -125 470 -219 680 -251 22 -3 63 -9 90 -13 102 -16 440 -8
545 12 102 20 147 30 236 56 612 176 1129 666 1366 1298 40 108 103 336 113
413 28 209 32 271 30 428 -2 96 -6 195 -9 220 -30 209 -59 338 -109 485 -258
752 -874 1293 -1617 1420 -520 88 -1072 -45 -1489 -359 -52 -39 -102 -77 -112
-84 -17 -13 -39 28 -304 558 -157 315 -285 573 -283 574 2 2 338 -134 498
-202 14 -6 115 -47 225 -92 110 -45 214 -87 230 -95 17 -7 84 -36 151 -63
l121 -49 39 28 c21 16 44 32 49 36 6 5 42 28 80 52 39 25 93 59 120 77 121 77
460 249 661 334 446 190 913 317 1349 366 28 3 61 7 75 10 14 2 81 7 150 10
69 3 126 7 127 8 5 4 298 -2 375 -8z m-2085 -1485 c564 -117 1016 -505 1241
-1067 55 -139 103 -321 118 -449 1 -16 6 -52 9 -80 10 -71 10 -299 1 -370 -5
-33 -9 -69 -10 -80 -3 -19 -15 -91 -21 -127 -7 -37 -48 -177 -72 -248 -129
-373 -408 -720 -743 -923 -133 -81 -328 -164 -425 -181 -16 -3 -46 -10 -65
-16 -19 -6 -57 -13 -85 -16 -27 -3 -68 -9 -90 -13 -45 -8 -299 -6 -359 3 -21
3 -56 8 -77 11 -22 3 -90 21 -153 40 -458 134 -825 448 -1048 896 -91 184
-161 417 -185 621 -9 75 -10 430 -1 473 4 17 9 48 13 70 20 141 91 366 159
505 137 281 353 536 591 695 33 22 62 42 65 45 7 7 60 35 143 77 106 53 231
96 372 130 155 36 455 38 622 4z m4073 16 c193 -34 330 -77 479 -151 486 -240
833 -706 945 -1266 35 -175 48 -403 31 -545 -3 -27 -8 -68 -11 -90 -35 -306
-185 -661 -382 -905 -215 -267 -488 -460 -792 -559 -170 -55 -296 -75 -480
-75 -203 0 -337 22 -526 87 -545 188 -978 692 -1110 1292 -14 61 -24 121 -30
167 -3 29 -7 64 -9 78 -7 49 -7 306 0 375 72 727 588 1369 1243 1546 81 22 93
24 212 44 70 11 368 13 430 2z m1802 -2424 c68 -293 71 -306 97 -448 12 -60
23 -117 26 -125 2 -8 6 -33 10 -55 7 -50 24 -154 29 -180 2 -11 7 -42 10 -70
4 -27 9 -61 11 -75 2 -14 6 -47 9 -75 8 -62 16 -130 21 -170 2 -16 7 -66 11
-110 3 -44 8 -93 10 -110 25 -225 25 -992 -1 -1123 -1 -9 -6 -46 -9 -82 -4
-36 -9 -76 -11 -90 -2 -14 -7 -45 -10 -70 -3 -25 -8 -56 -10 -70 -3 -14 -7
-41 -10 -60 -26 -174 -141 -587 -210 -755 -9 -22 -24 -58 -33 -80 -9 -22 -51
-110 -94 -195 -248 -497 -611 -891 -1115 -1208 -151 -95 -295 -170 -518 -268
-89 -39 -249 -98 -353 -129 l-43 -13 34 41 c57 71 273 381 422 607 674 1020
1117 1971 1324 2840 31 128 74 356 85 445 4 28 9 64 11 80 15 102 27 287 28
415 0 98 -11 310 -18 345 -4 19 -7 36 -20 136 -6 41 -2 52 25 92 83 123 194
374 242 545 12 45 26 82 29 82 3 0 13 -30 21 -67z m-8147 0 c49 -176 159 -424
249 -563 43 -66 46 -74 51 -157 8 -137 15 -235 20 -268 2 -16 7 -61 10 -100 4
-38 9 -78 11 -89 2 -10 6 -44 9 -75 4 -31 8 -63 10 -71 3 -8 9 -46 15 -85 5
-38 12 -80 14 -91 2 -12 7 -37 10 -55 9 -55 23 -126 50 -251 14 -64 27 -127
30 -140 2 -13 9 -43 16 -68 7 -25 14 -53 15 -62 16 -82 112 -403 190 -633 247
-733 587 -1416 1023 -2060 158 -234 445 -609 610 -798 13 -14 -1 -12 -74 14
-256 90 -561 233 -764 358 -152 94 -316 207 -385 263 -11 9 -58 47 -105 85
-77 62 -301 278 -375 363 -456 521 -747 1159 -859 1885 -23 151 -26 182 -43
365 -16 178 -9 767 12 975 13 128 29 267 40 335 2 14 7 45 10 70 9 63 44 266
55 320 5 25 12 56 14 70 26 135 115 520 121 520 2 0 11 -26 20 -57z m3282
-6313 c12 0 13 -125 4 -432 -1 -13 -9 -18 -31 -18 l-31 0 3 230 c3 225 3 231
23 226 11 -3 26 -6 32 -6z m1751 -223 c-2 -128 -7 -238 -11 -244 -4 -5 -18 -8
-32 -6 l-25 5 4 182 c3 99 5 202 5 228 1 45 10 56 59 67 2 1 2 -104 0 -232z
m-1243 98 c28 -3 57 -8 65 -10 102 -28 528 -25 655 5 79 19 81 18 79 -52 -2
-35 -3 -113 -4 -174 l-2 -111 -427 2 c-234 2 -440 4 -457 4 l-31 1 3 88 c1 48
3 127 3 176 l1 88 33 -6 c17 -3 55 -8 82 -11z"/>
<path d="M7130 6135 c0 -3 21 -35 48 -70 26 -35 83 -113 127 -175 44 -61 85
-116 90 -123 8 -9 386 -527 418 -571 5 -7 12 -4 22 9 14 20 49 67 172 235 193
262 503 691 503 695 0 3 -310 5 -690 5 -379 0 -690 -2 -690 -5z"/>
<path d="M5770 9385 c-452 -75 -817 -378 -995 -824 -29 -75 -58 -172 -71 -236
-2 -11 -6 -31 -9 -45 -38 -194 -16 -479 52 -690 155 -481 564 -840 1034 -907
93 -14 308 -8 399 11 259 52 481 173 666 366 59 60 163 195 185 239 8 14 23
42 35 61 67 112 145 363 160 515 11 118 2 311 -22 439 -58 313 -251 635 -489
817 -16 13 -32 26 -35 29 -11 11 -91 60 -161 98 -85 46 -223 97 -324 118 -91
20 -328 25 -425 9z m335 -984 c100 -48 166 -125 203 -238 100 -304 -174 -606
-462 -509 -78 27 -119 55 -171 117 -108 130 -125 333 -39 475 103 172 298 236
469 155z"/>
<path d="M9485 9393 c-110 -15 -273 -64 -380 -116 -401 -195 -689 -611 -742
-1072 -12 -105 -6 -324 12 -405 3 -14 8 -41 11 -60 8 -52 64 -233 76 -247 6
-7 8 -13 5 -13 -9 0 82 -169 126 -235 202 -301 531 -516 862 -561 73 -10 282
-12 329 -3 23 4 55 9 71 12 353 56 714 329 893 676 70 135 119 275 138 390 3
18 8 43 11 55 3 11 7 84 10 161 9 252 -34 467 -137 680 -185 384 -501 636
-905 722 -66 14 -314 24 -380 16z m286 -979 c92 -36 163 -104 212 -203 30 -62
32 -73 32 -176 0 -104 -2 -114 -32 -175 -88 -178 -261 -261 -435 -209 -73 22
-115 48 -166 103 -141 153 -146 395 -12 552 34 39 105 94 122 94 8 0 19 5 24
10 30 30 182 32 255 4z"/>
</g>
</svg>
